<mxfile host="65bd71144e">
    <diagram id="GY_ADMbEdIEGEdAxetan" name="Page-1">
        <mxGraphModel dx="1232" dy="598" grid="1" gridSize="10" guides="1" tooltips="1" connect="1" arrows="1" fold="1" page="1" pageScale="1" pageWidth="827" pageHeight="1169" math="0" shadow="0">
            <root>
                <mxCell id="0"/>
                <mxCell id="1" parent="0"/>
                <mxCell id="2" value="ECP" style="shape=cube;whiteSpace=wrap;html=1;boundedLbl=1;backgroundOutline=1;darkOpacity=0.05;darkOpacity2=0.1;" parent="1" vertex="1">
                    <mxGeometry x="110" y="50" width="120" height="80" as="geometry"/>
                </mxCell>
                <mxCell id="28" value="" style="group" parent="1" vertex="1" connectable="0">
                    <mxGeometry x="767" y="115.5" width="60" height="63" as="geometry"/>
                </mxCell>
                <mxCell id="29" value="" style="html=1;verticalLabelPosition=bottom;align=center;labelBackgroundColor=#ffffff;verticalAlign=top;strokeWidth=2;strokeColor=#0080F0;shadow=0;dashed=0;shape=mxgraph.ios7.icons.gauge;gradientColor=none;" parent="28" vertex="1">
                    <mxGeometry width="55.41176470588235" height="49.856115107913666" as="geometry"/>
                </mxCell>
                <mxCell id="30" value="" style="aspect=fixed;html=1;points=[];align=center;image;fontSize=12;image=img/lib/azure2/general/Counter.svg;" parent="28" vertex="1">
                    <mxGeometry x="17.64705882352941" y="27.64748201438849" width="24.992591983362807" height="20.30648098648228" as="geometry"/>
                </mxCell>
                <mxCell id="3" value="" style="endArrow=none;html=1;" parent="1" edge="1">
                    <mxGeometry width="50" height="50" relative="1" as="geometry">
                        <mxPoint x="381" y="273" as="sourcePoint"/>
                        <mxPoint x="380" y="136" as="targetPoint"/>
                    </mxGeometry>
                </mxCell>
                <mxCell id="4" value="" style="endArrow=none;html=1;" parent="1" edge="1">
                    <mxGeometry width="50" height="50" relative="1" as="geometry">
                        <mxPoint x="500" y="37" as="sourcePoint"/>
                        <mxPoint x="380" y="137" as="targetPoint"/>
                    </mxGeometry>
                </mxCell>
                <mxCell id="6" value="" style="endArrow=none;html=1;" parent="1" edge="1">
                    <mxGeometry width="50" height="50" relative="1" as="geometry">
                        <mxPoint x="500" y="183" as="sourcePoint"/>
                        <mxPoint x="500" y="41" as="targetPoint"/>
                    </mxGeometry>
                </mxCell>
                <mxCell id="7" value="" style="endArrow=none;html=1;" parent="1" edge="1">
                    <mxGeometry width="50" height="50" relative="1" as="geometry">
                        <mxPoint x="435" y="229" as="sourcePoint"/>
                        <mxPoint x="435" y="119" as="targetPoint"/>
                    </mxGeometry>
                </mxCell>
                <mxCell id="8" value="" style="endArrow=none;html=1;" parent="1" edge="1">
                    <mxGeometry width="50" height="50" relative="1" as="geometry">
                        <mxPoint x="475" y="249" as="sourcePoint"/>
                        <mxPoint x="435" y="229" as="targetPoint"/>
                    </mxGeometry>
                </mxCell>
                <mxCell id="9" value="" style="endArrow=none;html=1;" parent="1" edge="1">
                    <mxGeometry width="50" height="50" relative="1" as="geometry">
                        <mxPoint x="475" y="139" as="sourcePoint"/>
                        <mxPoint x="435" y="119" as="targetPoint"/>
                    </mxGeometry>
                </mxCell>
                <mxCell id="10" value="" style="endArrow=none;html=1;" parent="1" edge="1">
                    <mxGeometry width="50" height="50" relative="1" as="geometry">
                        <mxPoint x="475" y="249" as="sourcePoint"/>
                        <mxPoint x="475" y="139" as="targetPoint"/>
                    </mxGeometry>
                </mxCell>
                <mxCell id="11" value="" style="endArrow=none;html=1;" parent="1" edge="1">
                    <mxGeometry width="50" height="50" relative="1" as="geometry">
                        <mxPoint x="435" y="229" as="sourcePoint"/>
                        <mxPoint x="380" y="273" as="targetPoint"/>
                    </mxGeometry>
                </mxCell>
                <mxCell id="12" value="" style="endArrow=none;html=1;" parent="1" edge="1">
                    <mxGeometry width="50" height="50" relative="1" as="geometry">
                        <mxPoint x="500" y="182" as="sourcePoint"/>
                        <mxPoint x="476" y="201" as="targetPoint"/>
                    </mxGeometry>
                </mxCell>
                <mxCell id="13" value="" style="endArrow=none;html=1;" parent="1" edge="1">
                    <mxGeometry width="50" height="50" relative="1" as="geometry">
                        <mxPoint x="464" y="149" as="sourcePoint"/>
                        <mxPoint x="445" y="139" as="targetPoint"/>
                    </mxGeometry>
                </mxCell>
                <mxCell id="14" value="" style="endArrow=none;html=1;" parent="1" edge="1">
                    <mxGeometry width="50" height="50" relative="1" as="geometry">
                        <mxPoint x="464" y="169" as="sourcePoint"/>
                        <mxPoint x="445" y="159" as="targetPoint"/>
                    </mxGeometry>
                </mxCell>
                <mxCell id="15" value="" style="endArrow=none;html=1;" parent="1" edge="1">
                    <mxGeometry width="50" height="50" relative="1" as="geometry">
                        <mxPoint x="465" y="169" as="sourcePoint"/>
                        <mxPoint x="465" y="149" as="targetPoint"/>
                    </mxGeometry>
                </mxCell>
                <mxCell id="17" value="" style="endArrow=none;html=1;" parent="1" edge="1">
                    <mxGeometry width="50" height="50" relative="1" as="geometry">
                        <mxPoint x="445" y="159" as="sourcePoint"/>
                        <mxPoint x="445" y="139" as="targetPoint"/>
                    </mxGeometry>
                </mxCell>
                <mxCell id="18" value="" style="ellipse;whiteSpace=wrap;html=1;aspect=fixed;" parent="1" vertex="1">
                    <mxGeometry x="460" y="187" width="10" height="10" as="geometry"/>
                </mxCell>
                <mxCell id="19" value="" style="endArrow=none;html=1;" parent="1" edge="1">
                    <mxGeometry width="50" height="50" relative="1" as="geometry">
                        <mxPoint x="458" y="102" as="sourcePoint"/>
                        <mxPoint x="435" y="119" as="targetPoint"/>
                    </mxGeometry>
                </mxCell>
                <mxCell id="20" value="" style="endArrow=none;html=1;" parent="1" edge="1">
                    <mxGeometry width="50" height="50" relative="1" as="geometry">
                        <mxPoint x="458" y="102" as="sourcePoint"/>
                        <mxPoint x="458" y="128" as="targetPoint"/>
                    </mxGeometry>
                </mxCell>
                <mxCell id="74" value="DTAOP" style="shape=cube;whiteSpace=wrap;html=1;boundedLbl=1;backgroundOutline=1;darkOpacity=0.05;darkOpacity2=0.1;" parent="1" vertex="1">
                    <mxGeometry x="110" y="160" width="120" height="80" as="geometry"/>
                </mxCell>
                <mxCell id="75" value="" style="endArrow=classic;html=1;edgeStyle=orthogonalEdgeStyle;curved=1;strokeWidth=4;dashed=1;" parent="1" edge="1">
                    <mxGeometry width="50" height="50" relative="1" as="geometry">
                        <mxPoint x="260" y="100" as="sourcePoint"/>
                        <mxPoint x="350" y="150" as="targetPoint"/>
                        <Array as="points">
                            <mxPoint x="300" y="100"/>
                            <mxPoint x="300" y="150"/>
                        </Array>
                    </mxGeometry>
                </mxCell>
                <mxCell id="76" value="" style="endArrow=classic;html=1;edgeStyle=orthogonalEdgeStyle;curved=1;strokeWidth=4;dashed=1;" parent="1" edge="1">
                    <mxGeometry width="50" height="50" relative="1" as="geometry">
                        <mxPoint x="260" y="200" as="sourcePoint"/>
                        <mxPoint x="350" y="150" as="targetPoint"/>
                        <Array as="points">
                            <mxPoint x="300" y="200"/>
                            <mxPoint x="300" y="150"/>
                        </Array>
                    </mxGeometry>
                </mxCell>
                <mxCell id="77" value="TPIU" style="text;html=1;align=center;verticalAlign=middle;resizable=0;points=[];autosize=1;strokeColor=none;fillColor=none;" parent="1" vertex="1">
                    <mxGeometry x="390" y="137" width="40" height="20" as="geometry"/>
                </mxCell>
                <mxCell id="132" value="&lt;font style=&quot;font-size: 17px&quot;&gt;Rising Flank&lt;br&gt;Counter: 4&lt;/font&gt;" style="text;html=1;align=center;verticalAlign=middle;resizable=0;points=[];autosize=1;fillColor=#f5f5f5;fontColor=#333333;strokeColor=#666666;" parent="1" vertex="1">
                    <mxGeometry x="750.0046464646464" y="177.00313782991205" width="110" height="40" as="geometry"/>
                </mxCell>
                <mxCell id="137" value="" style="pointerEvents=1;verticalLabelPosition=bottom;shadow=0;dashed=0;align=center;html=1;verticalAlign=top;shape=mxgraph.electrical.waveforms.pulse_1;fontFamily=Lucida Console;fontSize=30;" vertex="1" parent="1">
                    <mxGeometry x="560" y="130" width="40" height="90" as="geometry"/>
                </mxCell>
                <mxCell id="138" value="" style="pointerEvents=1;verticalLabelPosition=bottom;shadow=0;dashed=0;align=center;html=1;verticalAlign=top;shape=mxgraph.electrical.waveforms.pulse_1;fontFamily=Lucida Console;fontSize=30;" vertex="1" parent="1">
                    <mxGeometry x="600" y="130" width="40" height="90" as="geometry"/>
                </mxCell>
                <mxCell id="139" value="" style="pointerEvents=1;verticalLabelPosition=bottom;shadow=0;dashed=0;align=center;html=1;verticalAlign=top;shape=mxgraph.electrical.waveforms.pulse_1;fontFamily=Lucida Console;fontSize=30;" vertex="1" parent="1">
                    <mxGeometry x="640" y="130" width="40" height="90" as="geometry"/>
                </mxCell>
                <mxCell id="140" value="" style="pointerEvents=1;verticalLabelPosition=bottom;shadow=0;dashed=0;align=center;html=1;verticalAlign=top;shape=mxgraph.electrical.waveforms.pulse_1;fontFamily=Lucida Console;fontSize=30;" vertex="1" parent="1">
                    <mxGeometry x="680" y="130" width="40" height="90" as="geometry"/>
                </mxCell>
            </root>
        </mxGraphModel>
    </diagram>
</mxfile>